<svg width="164" height="30" viewBox="0 0 164 30" fill="none" xmlns="http://www.w3.org/2000/svg">
<g clip-path="url(#clip0)">
<path fill-rule="evenodd" clip-rule="evenodd" d="M38.2595 2.92336C37.3194 2.55744 36.1561 2.44959 34.8561 2.63287C34.0545 2.74632 33.2 2.97073 32.3138 3.31296C31.463 3.64272 30.6484 4.05602 29.8766 4.53539L33.0075 5.7547C33.7793 5.27533 34.5939 4.86203 35.4438 4.5329C36.33 4.19004 37.1836 3.96563 37.9861 3.85218C39.286 3.66891 40.4493 3.77675 41.3894 4.14267L38.2595 2.92336Z" fill="#F0A72E"/>
<mask id="mask0" mask-type="alpha" maskUnits="userSpaceOnUse" x="0" y="1" width="30" height="26">
<path fill-rule="evenodd" clip-rule="evenodd" d="M0 1.53545H29.2064V26.6525H0V1.53545Z" fill="white"/>
</mask>
<g mask="url(#mask0)">
<path fill-rule="evenodd" clip-rule="evenodd" d="M26.1896 1.95648C25.1428 1.54852 23.8459 1.42896 22.3976 1.63324C21.5031 1.75941 20.5504 2.00935 19.5619 2.39207C17.9173 3.02894 16.373 3.9542 15.0341 5.04829C12.5703 7.06163 10.8011 9.64635 10.3727 12.0526C9.63331 12.1644 8.84103 12.3765 8.02814 12.6913C6.61029 13.2398 5.27937 14.0365 4.1259 14.9786C1.65407 16.9956 -0.00935362 19.6776 -0.000391207 22.0124C0.00767497 23.7151 0.90302 24.9137 2.34866 25.4767L5.36541 26.6525C3.91887 26.089 3.02353 24.8903 3.01636 23.1876C3.0065 20.8528 4.67082 18.1708 7.14176 16.1538C8.29612 15.2117 9.62614 14.415 11.0449 13.8665C11.8569 13.5517 12.6501 13.3396 13.3886 13.2278C13.817 10.8216 15.587 8.23683 18.0508 6.22349C19.3898 5.1294 20.9331 4.20414 22.5786 3.56727C23.5663 3.18455 24.519 2.93461 25.4134 2.80844C26.8627 2.60356 28.1586 2.72372 29.2063 3.13168L26.1896 1.95648Z" fill="#F0A72E"/>
</g>
<path fill-rule="evenodd" clip-rule="evenodd" d="M22.5784 3.56739C27.2442 1.76133 31.1213 2.90649 31.8132 6.09684C32.5571 5.63481 33.3422 5.23647 34.1614 4.91923C38.6085 3.19789 42.2276 4.58037 42.2419 8.00564C42.2562 11.4315 38.6605 15.606 34.2134 17.3273L11.0966 26.2747C6.64318 27.9985 3.03043 26.6136 3.0161 23.1877C3.00176 19.7619 6.59031 15.5904 11.0437 13.8666C11.8575 13.5518 12.6498 13.3397 13.3883 13.228C14.0497 9.51369 17.9054 5.37586 22.5784 3.56739" fill="#FFCA00"/>
<path fill-rule="evenodd" clip-rule="evenodd" d="M62.7052 4.66867C61.7651 4.30275 60.6018 4.1949 59.3018 4.37818C58.4993 4.49163 57.6457 4.71604 56.7586 5.05827C55.9087 5.38741 55.0941 5.80133 54.3223 6.2807L57.4523 7.50001C58.2241 7.02064 59.0387 6.60672 59.8895 6.27821C60.7748 5.93473 61.6293 5.71094 62.4309 5.59749C63.7318 5.41422 64.8941 5.52206 65.8342 5.88798L62.7052 4.66867Z" fill="#D43E3E"/>
<path fill-rule="evenodd" clip-rule="evenodd" d="M49.7466 3.63486C48.6998 3.22691 47.403 3.10674 45.9546 3.31102C45.0602 3.43719 44.1093 3.68713 43.1225 4.06925C41.4833 4.70372 39.9435 5.62658 38.6072 6.71886C36.1417 8.73401 34.3689 11.3235 33.9396 13.7322C33.1939 13.8464 32.4079 14.0561 31.5888 14.3733C30.1727 14.9212 28.8436 15.7179 27.6901 16.6594C25.2183 18.6764 23.5513 21.3596 23.5611 23.6944C23.5683 25.3965 24.4654 26.5939 25.9102 27.1575L28.9269 28.3321C27.4813 27.7691 26.5842 26.5717 26.577 24.8696C26.5671 22.5348 28.235 19.8516 30.706 17.8346C31.8603 16.8925 33.1895 16.0964 34.6046 15.5485C35.4256 15.2313 36.2107 15.0216 36.9564 14.9074C37.3857 12.4981 39.1584 9.90921 41.624 7.89406C42.9603 6.80178 44.5 5.87892 46.1393 5.24385C47.1251 4.86233 48.0769 4.61239 48.9705 4.48622C50.4197 4.28194 51.7157 4.40211 52.7634 4.81006L49.7466 3.63486Z" fill="#D43E3E"/>
<path fill-rule="evenodd" clip-rule="evenodd" d="M45.8812 27.8393C41.1593 29.5549 37.3191 28.3311 36.7299 25.1286C35.9715 25.5762 35.174 25.9594 34.3441 26.2609C29.8434 27.8966 26.2704 26.4453 26.3652 23.0208C26.46 19.5958 30.1866 15.4913 34.6873 13.8555L58.0828 5.35309C62.5825 3.71732 66.1564 5.16861 66.0617 8.59371C65.9669 12.0188 62.2402 16.1233 57.7396 17.759C56.9097 18.0599 56.1173 18.2544 55.3691 18.3549C54.5896 22.0548 50.6031 26.123 45.8812 27.8393" fill="#FA7564"/>
<path d="M81.9397 21.55V8.47H84.5597L86.8797 14.87C87.0264 15.2833 87.1664 15.71 87.2997 16.15C87.4331 16.5767 87.5731 17.0033 87.7197 17.43H87.7997C87.9464 17.0033 88.0797 16.5767 88.1997 16.15C88.3331 15.71 88.4731 15.2833 88.6197 14.87L90.8797 8.47H93.5197V21.55H91.3797V15.57C91.3797 15.2633 91.3864 14.93 91.3997 14.57C91.4264 14.21 91.4531 13.85 91.4797 13.49C91.5064 13.1167 91.5397 12.7567 91.5797 12.41C91.6197 12.05 91.6531 11.7167 91.6797 11.41H91.5997L90.5397 14.45L88.3997 20.33H87.0197L84.8597 14.45L83.8197 11.41H83.7397C83.7664 11.7167 83.7931 12.05 83.8197 12.41C83.8597 12.7567 83.8931 13.1167 83.9197 13.49C83.9597 13.85 83.9864 14.21 83.9997 14.57C84.0264 14.93 84.0397 15.2633 84.0397 15.57V21.55H81.9397ZM98.6723 21.79C97.8056 21.79 97.1056 21.53 96.5723 21.01C96.0389 20.4767 95.7723 19.7767 95.7723 18.91C95.7723 18.39 95.8789 17.93 96.0923 17.53C96.3189 17.1167 96.6656 16.7633 97.1323 16.47C97.6123 16.1767 98.2123 15.93 98.9323 15.73C99.6656 15.53 100.539 15.3767 101.552 15.27C101.539 15.0167 101.499 14.7767 101.432 14.55C101.379 14.31 101.279 14.1033 101.132 13.93C100.999 13.7433 100.819 13.6033 100.592 13.51C100.366 13.4033 100.086 13.35 99.7523 13.35C99.2723 13.35 98.7989 13.4433 98.3323 13.63C97.8789 13.8167 97.4323 14.0433 96.9923 14.31L96.1523 12.77C96.6989 12.4233 97.3123 12.1233 97.9923 11.87C98.6723 11.6167 99.4056 11.49 100.192 11.49C101.419 11.49 102.332 11.8567 102.932 12.59C103.546 13.31 103.852 14.3567 103.852 15.73V21.55H101.952L101.792 20.47H101.712C101.272 20.8433 100.799 21.1567 100.292 21.41C99.7989 21.6633 99.2589 21.79 98.6723 21.79ZM99.4123 19.99C99.8123 19.99 100.172 19.8967 100.492 19.71C100.826 19.5233 101.179 19.2567 101.552 18.91V16.71C100.886 16.79 100.326 16.8967 99.8723 17.03C99.4189 17.1633 99.0523 17.3167 98.7723 17.49C98.4923 17.65 98.2923 17.8367 98.1723 18.05C98.0523 18.2633 97.9923 18.49 97.9923 18.73C97.9923 19.17 98.1256 19.49 98.3923 19.69C98.6589 19.89 98.9989 19.99 99.4123 19.99ZM106.255 21.55V11.73H108.155L108.315 13.47H108.395C108.742 12.83 109.162 12.3433 109.655 12.01C110.148 11.6633 110.655 11.49 111.175 11.49C111.642 11.49 112.015 11.5567 112.295 11.69L111.895 13.69C111.722 13.6367 111.562 13.5967 111.415 13.57C111.268 13.5433 111.088 13.53 110.875 13.53C110.488 13.53 110.082 13.6833 109.655 13.99C109.228 14.2833 108.862 14.8033 108.555 15.55V21.55H106.255ZM116.826 21.79C116.253 21.79 115.766 21.7033 115.366 21.53C114.979 21.3567 114.659 21.1167 114.406 20.81C114.166 20.49 113.986 20.1167 113.866 19.69C113.759 19.25 113.706 18.7633 113.706 18.23V13.55H112.306V11.83L113.826 11.73L114.106 9.05H116.026V11.73H118.526V13.55H116.026V18.23C116.026 19.3767 116.486 19.95 117.406 19.95C117.579 19.95 117.753 19.93 117.926 19.89C118.113 19.85 118.279 19.7967 118.426 19.73L118.826 21.43C118.559 21.5233 118.253 21.6033 117.906 21.67C117.573 21.75 117.213 21.79 116.826 21.79ZM122.193 21.79C121.327 21.79 120.627 21.53 120.093 21.01C119.56 20.4767 119.293 19.7767 119.293 18.91C119.293 18.39 119.4 17.93 119.613 17.53C119.84 17.1167 120.187 16.7633 120.653 16.47C121.133 16.1767 121.733 15.93 122.453 15.73C123.187 15.53 124.06 15.3767 125.073 15.27C125.06 15.0167 125.02 14.7767 124.953 14.55C124.9 14.31 124.8 14.1033 124.653 13.93C124.52 13.7433 124.34 13.6033 124.113 13.51C123.887 13.4033 123.607 13.35 123.273 13.35C122.793 13.35 122.32 13.4433 121.853 13.63C121.4 13.8167 120.953 14.0433 120.513 14.31L119.673 12.77C120.22 12.4233 120.833 12.1233 121.513 11.87C122.193 11.6167 122.927 11.49 123.713 11.49C124.94 11.49 125.853 11.8567 126.453 12.59C127.067 13.31 127.373 14.3567 127.373 15.73V21.55H125.473L125.313 20.47H125.233C124.793 20.8433 124.32 21.1567 123.813 21.41C123.32 21.6633 122.78 21.79 122.193 21.79ZM122.933 19.99C123.333 19.99 123.693 19.8967 124.013 19.71C124.347 19.5233 124.7 19.2567 125.073 18.91V16.71C124.407 16.79 123.847 16.8967 123.393 17.03C122.94 17.1633 122.573 17.3167 122.293 17.49C122.013 17.65 121.813 17.8367 121.693 18.05C121.573 18.2633 121.513 18.49 121.513 18.73C121.513 19.17 121.647 19.49 121.913 19.69C122.18 19.89 122.52 19.99 122.933 19.99ZM134.876 21.79C134.116 21.79 133.429 21.6833 132.816 21.47C132.216 21.2433 131.696 20.89 131.256 20.41C130.829 19.93 130.496 19.3167 130.256 18.57C130.029 17.81 129.916 16.89 129.916 15.81V8.47H132.236V15.99C132.236 16.6967 132.296 17.2967 132.416 17.79C132.549 18.27 132.729 18.6567 132.956 18.95C133.196 19.2433 133.476 19.4567 133.796 19.59C134.116 19.71 134.476 19.77 134.876 19.77C135.276 19.77 135.643 19.71 135.976 19.59C136.309 19.4567 136.596 19.2433 136.836 18.95C137.076 18.6567 137.263 18.27 137.396 17.79C137.529 17.2967 137.596 16.6967 137.596 15.99V8.47H139.816V15.81C139.816 16.89 139.703 17.81 139.476 18.57C139.249 19.3167 138.916 19.93 138.476 20.41C138.049 20.89 137.529 21.2433 136.916 21.47C136.316 21.6833 135.636 21.79 134.876 21.79ZM142.732 21.55V8.47H146.852C147.572 8.47 148.238 8.53667 148.852 8.67C149.478 8.80333 150.018 9.03 150.472 9.35C150.925 9.67 151.278 10.09 151.532 10.61C151.785 11.1167 151.912 11.75 151.912 12.51C151.912 13.23 151.785 13.8567 151.532 14.39C151.278 14.9233 150.925 15.37 150.472 15.73C150.032 16.0767 149.505 16.3367 148.892 16.51C148.292 16.67 147.638 16.75 146.932 16.75H145.052V21.55H142.732ZM145.052 14.89H146.752C148.672 14.89 149.632 14.0967 149.632 12.51C149.632 11.6833 149.378 11.1167 148.872 10.81C148.378 10.49 147.645 10.33 146.672 10.33H145.052V14.89Z" fill="white"/>
</g>
<defs>
<clipPath id="clip0">
<rect y="0.55" width="164" height="28.675" fill="white"/>
</clipPath>
</defs>
</svg>
